<svg width="48" height="48" viewBox="0 0 48 48" fill="none" xmlns="http://www.w3.org/2000/svg">
<g clip-path="url(#clip0_1_11216)">
<path d="M23.25 0.796875V1.59375H24H24.75V1.00312C24.75 0.684375 24.7781 0.328125 24.8062 0.20625C24.8625 -6.33299e-08 24.8531 -6.33299e-08 24.0562 -6.33299e-08H23.25V0.796875Z" fill="#232323"/>
<path d="M26.4 0.421924C26.2594 1.35005 26.25 1.6688 26.3719 1.71567C26.4375 1.7438 26.775 1.79067 27.1125 1.82817L27.7313 1.8938L27.8344 1.2938C28.0125 0.271924 28.0406 0.318799 27.1875 0.225049L26.4375 0.131299L26.4 0.421924Z" fill="#232323"/>
<path d="M20.5312 0.253174C20.3531 0.281299 20.1656 0.328174 20.1281 0.375049C20.0812 0.412549 20.1 0.768799 20.1656 1.17192L20.2781 1.8938L20.8031 1.82817C21.8062 1.7063 21.7594 1.75317 21.6937 1.04067C21.6656 0.703174 21.6281 0.365674 21.6 0.300049C21.5719 0.187549 21.2344 0.178174 20.5312 0.253174Z" fill="#232323"/>
<path d="M17.6531 0.871924C17.2781 0.975049 16.9688 1.1063 16.9688 1.16255C16.9688 1.2188 17.0531 1.56567 17.1656 1.9313L17.3625 2.59692L18.0281 2.40942C18.4031 2.3063 18.7219 2.21255 18.7406 2.1938C18.7969 2.13755 18.45 0.656299 18.3844 0.665674C18.3562 0.675049 18.0187 0.768799 17.6531 0.871924Z" fill="#232323"/>
<path d="M29.5406 0.871826C29.4187 1.19058 29.2125 2.1562 29.2594 2.1937C29.2781 2.21245 29.5969 2.31558 29.9719 2.4187L30.6469 2.6062L30.8812 1.84683C31.0125 1.42495 31.1062 1.07808 31.0969 1.0687C31.0875 1.0687 30.75 0.974951 30.3469 0.862451L29.6156 0.665576L29.5406 0.871826Z" fill="#232323"/>
<path d="M14.6719 1.90316C14.3156 2.06253 13.9969 2.20316 13.9781 2.22191C13.9406 2.25003 14.3719 3.31878 14.5219 3.54378C14.5781 3.63753 14.7281 3.60941 15.1969 3.41253C15.525 3.27191 15.825 3.13128 15.8625 3.10316C15.9281 3.04691 15.4781 1.74378 15.3656 1.65941C15.3469 1.64066 15.0375 1.75316 14.6719 1.90316Z" fill="#232323"/>
<path d="M32.4094 2.18427C32.0344 3.10302 32.025 3.07489 32.7562 3.38427C33.1125 3.53427 33.4125 3.64677 33.4219 3.63739C33.4406 3.61864 33.6 3.29989 33.7875 2.92489L34.1344 2.24989L33.6844 2.05302C33.4312 1.94989 33.1031 1.79989 32.9344 1.73427L32.6344 1.61239L32.4094 2.18427Z" fill="#232323"/>
<path d="M11.8406 3.3375C11.5219 3.51562 11.2313 3.70312 11.1938 3.75937C11.1375 3.85312 11.8688 5.0625 11.9906 5.0625C12.0375 5.0625 13.1156 4.43437 13.2 4.35937C13.2375 4.32187 12.525 3 12.4688 3C12.4406 3 12.1594 3.15 11.8406 3.3375Z" fill="#232323"/>
<path d="M35.2875 3.44064C35.1469 3.68439 34.9781 3.99377 34.9031 4.10627C34.8281 4.22814 34.7813 4.34064 34.8 4.35002C35.1094 4.58439 36.0188 5.06252 36.0844 5.02502C36.1313 4.99689 36.3375 4.70627 36.5344 4.37814C36.8625 3.85314 36.8906 3.76877 36.7594 3.68439C36.675 3.63752 36.3656 3.45939 36.075 3.29064L35.5406 2.99064L35.2875 3.44064Z" fill="#232323"/>
<path d="M23.1469 3.69375C21.5438 5.1 20.1281 7.18125 19.5469 9C18.6 11.9438 19.7438 15.3375 22.6688 18.2625L23.2594 18.8531L23.2313 19.8469L23.2031 20.85L22.7344 20.2125C21.8813 19.05 20.3719 18.0281 18.7969 17.5406C17.5313 17.1469 16.9219 17.0531 15.1688 16.9969L13.4156 16.9406L13.1344 17.2313L12.8438 17.5125V18.9094C12.8438 22.7156 13.9969 25.425 16.2844 27.0094C17.8594 28.0969 20.2313 28.7813 22.4344 28.7813C22.9313 28.7813 23.175 28.8188 23.2125 28.9031C23.2313 28.9688 23.2406 30.0281 23.2313 31.2656L23.2031 33.5063L22.7438 32.8781C22.2281 32.1656 21.15 31.275 20.25 30.8063C19.5656 30.4406 18.0938 29.9719 17.1094 29.7938C16.7531 29.7281 15.7406 29.6719 14.8781 29.6719H13.2938L13.0688 29.9344C12.8531 30.1875 12.8438 30.2531 12.8438 31.575C12.8438 35.2781 13.9969 38.0719 16.1625 39.6C17.7844 40.7531 19.5188 41.2875 22.0313 41.4188L23.2031 41.4844L23.2313 43.1531L23.25 44.8125H24H24.75L24.7688 43.1438L24.7969 41.4844L25.9219 41.4281C26.5406 41.4 27.2156 41.3438 27.4219 41.3063C30.8438 40.7063 32.85 39.3563 34.0781 36.8156C34.8094 35.3063 35.1563 33.5719 35.1563 31.4531C35.1563 30.2625 35.1469 30.1875 34.9313 29.9344L34.7063 29.6719H33.1219C31.4719 29.6813 30.75 29.7656 29.4469 30.15C27.6281 30.6656 26.1844 31.6125 25.2563 32.8875L24.7969 33.5063L24.7688 31.2656C24.7594 30.0281 24.7688 28.9688 24.7875 28.9031C24.825 28.8188 25.0688 28.7813 25.5656 28.7813C27.0375 28.7813 28.9031 28.4063 30.1875 27.8531C31.9781 27.0844 33.1781 25.95 34.0313 24.2344C34.8 22.6781 35.1563 20.9719 35.1563 18.7875V17.5125L34.8844 17.2406L34.6125 16.9688H33.3563C31.7531 16.9688 30.6656 17.1094 29.4938 17.4563C27.4125 18.075 26.2781 18.8531 24.9656 20.5875L24.7594 20.8594V19.8375L24.75 18.825L25.6219 17.9063C26.9531 16.5 27.8906 15.0281 28.3969 13.5281C29.4188 10.4813 28.2656 7.05938 25.1906 4.05C24.0938 2.98125 23.9906 2.9625 23.1469 3.69375ZM24.6188 5.74688C25.35 6.525 25.9688 7.39688 26.4188 8.30625C26.925 9.3 27.0938 9.91875 27.1594 10.9219C27.2625 12.4875 26.6438 14.1188 25.3125 15.825L24.6094 16.7344L24.0375 16.7625L23.4563 16.7906L23.0625 16.3406C22.0594 15.1969 21.1594 13.5188 20.8969 12.2625C20.6344 11.0531 20.9625 9.3375 21.6938 8.025C22.2563 7.0125 23.7563 5.15625 24 5.15625C24.0375 5.15625 24.3188 5.41875 24.6188 5.74688ZM16.8188 18.7125C19.3781 19.1156 21.1406 20.2688 22.0594 22.1438C22.6781 23.4 23.0625 25.125 23.0625 26.6438V27.1875H22.3406C20.7844 27.1875 18.9281 26.7188 17.6625 26.0156C15.7313 24.9469 14.5969 22.7156 14.4656 19.7531L14.4094 18.5625H15.1406C15.5438 18.5625 16.2938 18.6281 16.8188 18.7125ZM33.5625 19.3313C33.5625 20.2688 33.3563 21.5719 33.0844 22.4063C32.4844 24.2531 31.5094 25.4344 29.9344 26.2313C28.8844 26.775 26.9813 27.1875 25.5938 27.1875H24.9375V26.4563C24.9375 24.1688 25.7625 21.8531 27.0281 20.5875C28.2469 19.3688 30.4219 18.6094 32.7469 18.5719L33.5625 18.5625V19.3313ZM16.8188 31.3688C19.7906 31.8375 21.675 33.3375 22.5281 35.9063C22.7813 36.6656 22.9688 37.7813 23.0344 38.8406L23.0906 39.8719L21.8813 39.8156C20.4 39.75 19.1344 39.45 18.0094 38.8875C15.8438 37.8188 14.6063 35.5406 14.4656 32.4094L14.4094 31.2188H15.1406C15.5438 31.2188 16.2938 31.2844 16.8188 31.3688ZM33.5344 32.3625C33.4406 34.4344 32.7281 36.45 31.6875 37.6125C30.4969 38.9438 28.0781 39.8438 25.65 39.8438H24.9094L24.9656 38.7375C25.1438 35.5875 26.325 33.3375 28.3688 32.2781C29.6531 31.6031 31.1438 31.2563 32.8031 31.2281L33.5906 31.2188L33.5344 32.3625Z" fill="#00AD0C"/>
<path d="M1.7625 4.91245C1.26563 5.0437 0.76875 5.39995 0.46875 5.82182C0.01875 6.44057 0 6.6937 0 11.2499C0 16.0031 0.009375 16.05 0.61875 16.7625C1.05 17.2781 1.59375 17.5218 2.46563 17.5875L3.1875 17.6531L3.20625 29.5218L3.23438 41.3906L3.46875 41.8406C3.9 42.7031 4.62188 43.1437 5.57813 43.1531C6.5625 43.1531 7.3125 42.675 7.74375 41.7656L7.96875 41.2968V29.475V17.6531L8.6625 17.5968C9.7875 17.5125 10.5188 17.0812 10.9313 16.2468C11.1 15.9187 11.1094 15.5906 11.1375 11.3437C11.1563 8.31557 11.1375 6.68432 11.0625 6.44995C10.9219 5.95307 10.2094 5.20307 9.675 4.99682C9.01875 4.7437 8.29688 4.79057 7.70625 5.10932L7.21875 5.37182L6.8625 5.17495C6.0375 4.71557 4.99688 4.72495 4.30313 5.1937L3.98438 5.40932L3.65625 5.1937C3.34688 4.98745 2.6625 4.7812 2.34375 4.79057C2.26875 4.79057 2.00625 4.84682 1.7625 4.91245ZM2.98125 6.71245C3.1875 6.94682 3.1875 6.98432 3.1875 9.52495C3.1875 12.6093 3.225 12.7499 4.03125 12.7499C4.17188 12.7499 4.3875 12.6656 4.50938 12.5718L4.73438 12.3937L4.78125 9.6187C4.82813 6.90932 4.82813 6.8437 5.03438 6.63745C5.325 6.3562 5.82188 6.3562 6.14063 6.6562L6.375 6.87182V9.4312C6.375 11.9812 6.4125 12.2999 6.70313 12.5906C6.95625 12.8437 7.54688 12.7968 7.77188 12.5062C7.95938 12.2624 7.96875 12.1406 7.96875 9.68432C7.96875 6.8062 7.99688 6.66557 8.56875 6.4687C8.83125 6.38432 8.94375 6.3937 9.16875 6.5062C9.31875 6.5812 9.46875 6.72182 9.50625 6.79682C9.53438 6.8812 9.5625 8.87807 9.5625 11.2406V15.5343L9.31875 15.7593C9.09375 15.9656 8.99063 15.9843 7.96875 16.0125C6.92813 16.0406 6.85313 16.0593 6.6375 16.2843L6.42188 16.5187L6.39375 28.8187L6.375 41.1281L6.14063 41.3437C5.82188 41.6437 5.325 41.6437 5.03438 41.3625L4.82813 41.1468L4.8 28.8468C4.78125 16.9031 4.77188 16.5375 4.59375 16.3125C4.425 16.0875 4.35938 16.0781 3.24375 16.0312C2.175 15.9843 2.04375 15.9656 1.85625 15.7687L1.64063 15.5531L1.6125 11.2781C1.59375 7.50932 1.60313 6.98432 1.73438 6.77807C2.03438 6.3187 2.59688 6.29057 2.98125 6.71245Z" fill="#232323"/>
<path d="M41.475 4.92192C37.8188 5.7188 35.7656 10.9125 37.4156 15.1969C37.8844 16.4063 38.9156 17.7938 39.7219 18.2907L40.0313 18.4876V29.8875V41.2969L40.2563 41.7657C40.5094 42.3188 41.0813 42.8625 41.5875 43.0407C42.0656 43.2 42.9 43.1907 43.3219 43.0125C43.8094 42.7969 44.2688 42.3563 44.5313 41.8407L44.7656 41.3907L44.7938 29.9438L44.8125 18.4969L45.375 18.0563C47.4656 16.4344 48.4969 12.7876 47.7094 9.78755C47.0344 7.20943 45.3469 5.36255 43.2656 4.92192C42.4781 4.75317 42.225 4.75317 41.475 4.92192ZM43.6313 6.68443C46.5844 8.0438 47.3531 13.3875 45 16.2094C44.7469 16.5094 44.2781 16.9313 43.9406 17.1375C43.6125 17.3438 43.3125 17.5875 43.275 17.6719C43.2469 17.7563 43.2188 23.0251 43.2188 29.3719C43.2188 38.4938 43.1906 40.9688 43.0969 41.1563C42.9188 41.5032 42.5344 41.6625 42.15 41.5313C41.9813 41.475 41.7938 41.3344 41.7281 41.2219C41.6531 41.0719 41.6156 38.0063 41.5969 29.3625L41.5781 17.7L41.2781 17.4563C41.1188 17.3157 40.7719 17.0532 40.5094 16.875C39.6188 16.2563 38.9625 15.1594 38.6063 13.6875C38.3344 12.5438 38.4 10.7719 38.7469 9.6938C39.5906 7.11568 41.7188 5.81255 43.6313 6.68443Z" fill="#232323"/>
<path d="M11.4937 43.5655L11.0906 44.203L11.7562 44.5968C12.1219 44.8124 12.45 44.9624 12.4875 44.9249C12.5812 44.8218 13.2281 43.6593 13.2 43.6405C13.1062 43.5468 12.0375 42.9374 11.9719 42.9374C11.9344 42.9374 11.7187 43.2187 11.4937 43.5655Z" fill="#232323"/>
<path d="M35.3906 43.275C35.0812 43.4625 34.8187 43.6219 34.8 43.6406C34.7812 43.6594 35.3906 44.85 35.4937 44.9906C35.5312 45.0375 36.7312 44.3531 36.7969 44.2406C36.8625 44.1469 36.1219 42.9375 36.0094 42.9375C35.9812 42.9469 35.7 43.0969 35.3906 43.275Z" fill="#232323"/>
<path d="M14.2219 45.0468L13.875 45.75L14.0812 45.8343C14.2031 45.8812 14.5406 46.0218 14.8312 46.1531L15.3656 46.3875L15.5906 45.8062C15.9562 44.8968 15.975 44.925 15.2531 44.6156C14.8969 44.4656 14.5969 44.3437 14.5875 44.3437C14.5781 44.3437 14.4187 44.6625 14.2219 45.0468Z" fill="#232323"/>
<path d="M32.7469 44.6156C32.4281 44.7563 32.1375 44.8875 32.1188 44.9156C32.0719 44.9625 32.5781 46.3594 32.6438 46.3594C32.8125 46.3406 34.0313 45.7781 34.0313 45.7125C34.0313 45.5719 33.45 44.3438 33.3844 44.3531C33.3563 44.3531 33.0656 44.475 32.7469 44.6156Z" fill="#232323"/>
<path d="M29.9531 45.5999C29.5969 45.6936 29.2781 45.7968 29.2594 45.8155C29.2406 45.8249 29.2969 46.1811 29.3906 46.5936C29.5219 47.1843 29.5969 47.3436 29.7 47.2968C29.775 47.2686 30.1125 47.1749 30.4406 47.0999C31.125 46.9218 31.125 46.9124 30.825 46.0218L30.6094 45.4124L29.9531 45.5999Z" fill="#232323"/>
<path d="M17.2969 45.5813C17.025 46.3407 16.9031 46.8938 16.9969 46.9313C17.2312 47.0157 18.4125 47.3438 18.4219 47.3157C18.4687 47.2594 18.75 46.0219 18.75 45.9094C18.75 45.8344 18.525 45.7219 18.1875 45.6282C17.5219 45.4407 17.3531 45.4313 17.2969 45.5813Z" fill="#232323"/>
<path d="M20.1656 46.7062C19.9875 47.728 19.9594 47.6812 20.8125 47.7749L21.5625 47.8687L21.6 47.578C21.7406 46.6499 21.75 46.3312 21.6281 46.2843C21.5625 46.2562 21.225 46.2093 20.8875 46.1718L20.2687 46.1062L20.1656 46.7062Z" fill="#232323"/>
<path d="M26.7844 46.2188C26.5313 46.2657 26.3156 46.3125 26.2969 46.3313C26.2781 46.35 26.2875 46.6969 26.3156 47.1L26.3719 47.8313L27.0844 47.775C27.4781 47.7375 27.8344 47.6719 27.8719 47.6344C27.9188 47.5875 27.9 47.2313 27.8438 46.8375C27.7125 46.0407 27.75 46.0594 26.7844 46.2188Z" fill="#232323"/>
<path d="M23.2313 47.1281C23.2125 47.5312 23.2125 47.8875 23.2313 47.925C23.25 47.9719 23.5969 48 24.0094 48H24.75V47.2031V46.4062H24.0094H23.2688L23.2313 47.1281Z" fill="#232323"/>
</g>
<defs>
<clipPath id="clip0_1_11216">
<rect width="48" height="48" fill="white"/>
</clipPath>
</defs>
</svg>
